<svg width="478" height="640" viewBox="0 0 478 640" fill="none" xmlns="http://www.w3.org/2000/svg">
<title>Contact us hero</title>
<path d="M205.743 438.958C205.743 438.958 236.414 436.289 245.282 430.786C255.342 424.504 260.843 389.6 275.624 379.376C290.405 369.151 279.607 399.086 277.349 407.052C275.091 415.018 272.217 443.023 254.767 451.769C237.317 460.515 211.122 463.965 211.122 463.965L205.743 438.958Z" fill="#EACFB6"/>
<path d="M228.336 436C217.156 438.084 203.5 438.5 203.5 438.5L210.935 465C210.935 465 220.098 463.809 231.278 461.003C235.608 448.289 230.69 439.359 228.336 436Z" fill="#EEEEEE"/>
<path d="M240.15 619.838C240.15 619.838 240.232 625.751 241.751 626.86C241.587 627.517 241.135 628.297 240.068 628.872C238.836 629.529 236.29 630.473 233.991 631.048C233.498 628.584 231.035 623.41 230.501 622.137L240.15 619.838Z" fill="#3D9EA0"/>
<path d="M242.408 632.443C246.35 630.842 250.456 628.378 252.467 627.146C252.632 627.352 252.796 627.557 252.96 627.844C253.658 629.199 239.904 636.302 236.906 636.22C236.085 636.179 235.428 635.604 234.977 634.783C236.947 634.291 239.616 633.552 242.408 632.443Z" fill="#263133"/>
<path d="M242.408 632.443C239.657 633.592 236.947 634.331 234.936 634.783C234.484 633.962 234.196 632.935 234.114 631.827C234.114 631.58 234.032 631.334 233.991 631.047C236.29 630.472 238.836 629.528 240.068 628.871C241.176 628.296 241.587 627.516 241.751 626.859C241.792 626.9 241.833 626.9 241.874 626.941C242.572 627.352 243.845 627.228 245.693 627.064C248.403 627.064 250.825 625.093 252.468 627.105C250.415 628.378 246.309 630.8 242.408 632.443Z" fill="#263133"/>
<path d="M107.285 549.703C107.285 549.703 101.865 547.321 100.223 548.307C99.6893 547.896 99.1556 547.157 99.1145 545.925C99.0324 544.529 99.2377 541.819 99.6483 539.479C102.112 540.053 107.819 539.93 109.215 539.971L107.285 549.703Z" fill="white"/>
<path d="M196.012 495.624C196.012 495.624 193.138 549.252 181.108 560.79C169.612 571.836 143.95 581.65 108.927 558.326C105.971 556.355 104.37 552.906 104.822 549.416L105.52 543.955C105.971 540.218 109.584 537.713 113.239 538.616C126.459 541.778 154.543 547.732 158.69 542.312C166.04 532.662 157.992 498.457 169.283 491.148C180.574 483.839 196.012 495.624 196.012 495.624Z" fill="#263133"/>
<path d="M187.842 422.82C188.211 421.506 190.059 421.177 190.059 421.177C189.977 421.013 189.238 419.535 190.962 418.59C191.619 418.262 193.097 419.288 193.097 419.288C193.097 419.288 192.728 418.714 192.851 417.769C193.015 416.825 197.121 416.044 199.05 419.371C200.611 422.04 198.517 424.257 197.654 424.996C197.531 425.201 197.408 425.284 197.408 425.284C196.998 428.692 188.704 432.018 188.704 432.018C188.704 432.018 186.733 428.035 187.39 425.119C187.472 424.791 187.636 424.38 187.924 423.929C187.801 423.518 187.718 423.189 187.842 422.82Z" fill="#FFAB00"/>
<path d="M179.424 500.879C179.424 500.879 179.137 509.954 180.697 515.169C182.627 521.78 200.364 559.722 204.798 575.243C211.614 599.06 225.04 629.323 234.36 626.489C236.659 625.791 241.258 625.75 242.038 622.712C246.308 606.204 228.694 561.446 226.107 552.618C222.741 541.12 206.892 488.684 206.892 488.684L179.424 500.879Z" fill="#263133"/>
<path d="M153.106 506.792C157.541 494.761 154.995 451.152 172.527 440.887C184.229 434.029 205.949 436.863 212.641 442.57C219.58 448.525 205.784 472.792 210.095 499.442C212.189 512.459 196.012 512.007 190.305 512.5C189.32 512.541 159.676 513.773 153.106 506.792Z" fill="#EEEEEE"/>
<path d="M189.607 428.815L186.856 438.67C186.939 440.025 194.452 443.393 196.505 441.545C197.121 441.011 196.875 439.697 196.177 438.342L192.235 430.827L189.607 428.815Z" fill="#EACFB6"/>
<path d="M191.372 425.489L189.565 430.868C189.114 432.675 190.181 434.522 191.988 435.056C193.425 435.467 194.369 435.467 196.217 435.262C197.777 435.097 198.557 433.619 198.598 431.607C198.639 428.979 197.9 426.556 197.449 425.283C196.381 422.368 192.809 422.081 191.372 425.489Z" fill="#EACFB6"/>
<path d="M194.575 429.472C194.575 429.472 195.848 429.8 197.655 429.595C197.655 429.595 197.696 430.786 196.957 431.155C196.259 431.566 194.986 430.868 194.575 429.472Z" fill="white"/>
<path d="M191.495 427.665C191.413 427.336 191.413 426.967 191.413 426.638C191.413 425.981 191.29 424.996 190.264 425.448C188.827 426.146 188.785 429.389 190.428 429.676C191.66 429.882 191.66 428.568 191.495 427.665Z" fill="#EACFB6"/>
<path d="M194.493 440.64L196.177 438.3C196.177 438.3 199.133 440.312 199.174 441.831C199.215 443.35 198.722 443.597 198.722 443.597L194.74 442.036L190.182 443.679C190.182 443.679 185.419 440.148 185.625 439.203C185.83 438.259 187.595 436.083 187.595 436.083C187.595 436.083 190.88 439.737 194.493 440.64Z" fill="#EEEEEE"/>
<path d="M85.3594 471.602C88.603 463.841 120.67 467.455 125.925 461.09C133.726 451.646 133.274 420.069 140.378 420.685C155.035 421.917 149.369 469.303 127.198 478.336C104.369 487.617 81.4589 480.923 85.3594 471.602Z" fill="#7C5031"/>
<path d="M116.564 441.256L389.725 280.989L119.808 370.588L116.564 441.256Z" fill="#249294"/>
<path d="M45.7393 331.251L93.3669 356.093L287.326 311.253L119.808 370.588L210.753 412.883L300.137 387.547L403.152 273.353L121.287 299.222L45.7393 331.251Z" fill="#EBF5F5"/>
<path d="M93.3672 356.093L116.565 441.256L119.809 370.588L389.726 280.989L93.3672 356.093Z" fill="#8AC4C6"/>
<path d="M92.8327 455.547C92.8327 455.547 93.9002 450.825 91.1493 447.334C88.9321 444.501 84.9495 441.832 78.3391 446.061C71.7287 450.291 73.371 458.175 67.2533 461.008C61.1356 463.841 56.4139 460.762 52.226 464.047C48.038 467.332 47.2579 469.754 47.8738 470.74C48.4897 471.725 50.5426 468.687 51.1995 468.81C51.8565 468.933 48.4076 470.001 47.6685 476.612C46.8884 483.223 51.528 493.078 60.7661 492.914C70.0042 492.79 93.6538 468.687 92.8327 455.547Z" fill="#263133"/>
<path d="M82.6496 457.271L81.9105 466.223C81.7873 467.701 85.1541 471.725 87.6176 470.042C88.3156 469.549 87.5765 467.455 87.0428 465.895L85.811 458.093L82.6496 457.271Z" fill="#7F5233"/>
<path d="M83.0605 451.523L82.2804 454.931C81.6645 457.641 83.2247 460.433 85.8935 461.131C88.357 461.747 90.9027 460.474 91.4775 457.354C92.0112 454.561 90.1636 452.015 89.5477 450.66C88.1107 447.622 84.2512 447.704 83.0605 451.523Z" fill="#7F5233"/>
<path d="M82.4857 455.218C82.3215 454.972 82.1983 454.685 82.0751 454.397C81.8698 453.863 81.4182 453.083 80.7613 453.822C79.8169 454.849 81.1308 457.682 82.5268 457.353C83.6354 457.148 82.9374 455.875 82.4857 455.218Z" fill="#7F5233"/>
<path d="M90.2046 455.301C90.2046 455.301 88.5212 456.081 86.8789 456.163C86.8789 456.163 87.5769 457.025 88.8497 456.861C90.0815 456.738 90.2046 455.301 90.2046 455.301Z" fill="white"/>
<path d="M98.3337 468.399C102.891 472.998 99.3814 477.157 97 485C95.5414 490.88 99.2845 497.734 101 500L66 502.5C71.2965 487.718 68.977 499.36 69.7982 488.643C70.2088 483.058 65.9797 473.039 71.5637 468.276C79.6111 461.377 90.9021 460.885 98.3337 468.399Z" fill="#7F5233"/>
<path d="M66.0215 502.276C67.5817 502.399 79.6118 509.462 101.742 501.126C98.2523 492.051 97.1026 487.781 97.6774 485.851C100.059 478.008 102.892 472.998 98.3344 468.399C95.5014 465.566 92.1756 463.883 88.6446 463.226C89.7121 464.745 92.3399 468.974 91.1492 471.89C89.63 475.503 84.2103 476.283 81.8289 471.068C80.3508 467.907 79.3654 465.525 78.8317 464.088C77.3536 464.622 75.9165 465.32 74.5206 466.141C75.8344 468.728 77.682 472.998 78.0105 476.612C78.38 480.759 72.6319 483.716 69.6757 484.948C69.8399 486.303 69.922 487.535 69.8399 488.602C69.5936 491.189 67.9923 497.348 66.0215 502.276Z" fill="#F9CB40"/>
<path d="M71.4366 470.926C74.6802 463.166 106.747 466.779 112.002 460.414C119.803 450.97 119.352 419.393 126.455 420.009C141.113 421.241 135.446 468.627 113.275 477.661C90.4466 486.941 67.536 480.248 71.4366 470.926Z" fill="#7F5233"/>
<path d="M124.694 422.45C124.694 423.928 126.172 424.914 127.568 424.462C130.648 423.394 135.985 421.3 137.012 418.919C138.49 415.551 139.147 414.278 137.915 414.648C136.683 415.018 135.287 417.399 133.85 418.179C132.413 418.96 132.126 417.933 132.413 417.44C132.701 416.948 134.507 415.551 134.056 414.689C133.604 413.786 133.563 414.443 131.551 415.264C129.539 416.085 125.392 418.261 124.818 420.972C124.735 421.464 124.694 421.998 124.694 422.45Z" fill="#7F5233"/>
<path d="M94.68 632.403C95.9528 632.238 98.3753 632.813 99.2785 632.485C100.182 632.156 101.66 630.719 103.22 631.007C104.78 631.335 107.942 634.62 109.133 635.359C110.323 636.098 113.279 636.714 113.813 638.274C113.813 639.095 112.992 639.793 112.007 639.793L96.1581 639.957C94.7621 639.957 93.5714 639.136 93.3661 637.986C93.1608 636.755 93.4072 632.567 94.68 632.403Z" fill="#58595B"/>
<path d="M7.30805 597.335C7.63651 598.567 7.47228 601.031 7.92392 601.893C8.37556 602.755 10.059 603.946 9.97684 605.548C9.89472 607.149 7.14381 610.763 6.569 612.036C5.99418 613.308 5.87101 616.347 4.39291 617.127C3.57174 617.251 2.75057 616.552 2.6274 615.567L0.0817836 599.922C-0.164566 598.526 0.533425 597.212 1.60094 596.842C2.79163 596.473 6.97958 596.103 7.30805 597.335Z" fill="#58595B"/>
<path d="M107.659 509.198C106.509 507.679 103.881 504.147 101.5 500C83.927 506.816 70.2418 503.344 65.8896 501.701C63.7135 506.67 60.8805 512.09 58.0885 519.892C54.4754 529.952 53.2025 559.969 50 563.5C44.5392 569.537 45.6149 563.418 6.48637 598.034C4.26922 600.005 6.28108 604.193 9.23728 603.742C40.3184 599.266 55.3376 590.71 65.8896 579.5C69.3795 575.764 86.3037 547.404 92.0519 536.974C92.093 536.933 91.2027 538.541 91.2027 538.5C91.2027 538.5 103.5 564.691 103.5 572C103.5 579.104 94.5154 628.79 95.0492 633.389C95.3776 636.181 97.4716 635.852 102.604 632.65C105.642 630.761 124.133 604.073 127.5 575C129.758 555.249 118 519.892 107.659 509.198Z" fill="#3D9EA0"/>
<path d="M171.87 444.378C180.328 438.876 204.552 445.158 214.242 441.257C225.245 436.822 233.293 402.659 249.634 395.144C265.975 387.63 250.127 415.265 246.514 422.697C242.9 430.129 237.686 451.851 219.005 457.436C200.282 463.02 172.321 463.595 168.749 456.943C166.45 452.755 167.846 447.006 171.87 444.378Z" fill="#EACFB6"/>
<path d="M193.836 441.914C184.639 441.463 175.4 441.093 170.761 444.05C166.573 446.719 165.095 452.591 167.476 456.861C169.817 461.05 182.093 464.827 195.56 463.924C198.64 455.137 195.191 444.707 193.836 441.914Z" fill="#EEEEEE"/>
<path d="M252.221 395.554C252.221 397.033 253.699 398.018 255.095 397.566C258.174 396.499 263.512 394.405 264.538 392.023C266.016 388.656 266.673 387.383 265.442 387.753C264.21 388.122 262.814 390.504 261.377 391.284C259.94 392.064 259.652 391.038 259.94 390.545C260.227 390.052 262.034 388.656 261.582 387.794C261.13 386.89 261.089 387.547 259.077 388.368C257.066 389.19 252.919 391.366 252.344 394.076C252.262 394.61 252.221 395.103 252.221 395.554Z" fill="#EACFB6"/>
<path d="M346.368 85.3272L292.541 3.94141L355.032 65.3298L346.368 85.3272Z" fill="#3D9EA0"/>
<path d="M380.857 64.4681L364.311 64.8787L316.724 26.1979L355.032 65.3304L324.156 64.6734L302.847 45.5383L289.831 0L364.311 45.3741L380.857 64.4681Z" fill="#EBF5F5"/>
<path d="M364.311 64.8781L346.368 85.3272L355.032 65.3298L292.541 3.94141L364.311 64.8781Z" fill="#8AC4C6"/>
<g clip-path="url(#clip0)">
<path d="M382.098 345.421L377.371 344.947C376.418 344.838 375.722 344 375.795 343.016C375.905 342.068 376.748 341.376 377.738 341.449L382.465 341.922C383.418 342.032 384.114 342.87 384.041 343.854C383.931 344.838 383.088 345.53 382.098 345.421Z" fill="#EEEEEE"/>
<path d="M411.122 345.64L406.394 346.004C405.442 346.077 404.599 345.348 404.526 344.401C404.452 343.453 405.185 342.615 406.138 342.542L410.865 342.178C411.818 342.105 412.661 342.834 412.734 343.781C412.807 344.729 412.075 345.567 411.122 345.64Z" fill="#EEEEEE"/>
<path d="M440.585 342.725L436.077 344.182C435.161 344.474 434.172 343.964 433.878 343.053C433.585 342.141 434.098 341.158 435.014 340.866L439.522 339.408C440.438 339.117 441.427 339.627 441.721 340.538C442.014 341.413 441.537 342.397 440.585 342.725Z" fill="#EEEEEE"/>
<path d="M460.557 327.455L457.625 331.172C457.039 331.938 455.94 332.083 455.17 331.464C454.4 330.881 454.254 329.787 454.877 329.022L457.809 325.305C458.395 324.54 459.494 324.394 460.264 325.013C461.033 325.596 461.18 326.69 460.557 327.455Z" fill="#EEEEEE"/>
<path d="M473.053 300.014L471.331 304.423C470.965 305.334 469.975 305.772 469.059 305.407C468.143 305.043 467.703 304.059 468.07 303.148L469.792 298.738C470.158 297.827 471.148 297.39 472.064 297.754C472.943 298.082 473.383 299.103 473.053 300.014Z" fill="#EEEEEE"/>
<path d="M478 270.495L477.744 275.233C477.707 276.18 476.864 276.945 475.912 276.872C474.959 276.836 474.189 275.998 474.263 275.05L474.519 270.313C474.556 269.365 475.399 268.6 476.351 268.673C477.304 268.709 478.037 269.511 478 270.495Z" fill="#EEEEEE"/>
<path d="M476.388 241.194L477.304 245.822C477.487 246.77 476.864 247.681 475.911 247.863C474.959 248.045 474.042 247.426 473.859 246.478L472.943 241.85C472.76 240.902 473.383 239.991 474.336 239.809C475.288 239.627 476.205 240.246 476.388 241.194Z" fill="#EEEEEE"/>
<path d="M468.032 212.841L469.938 217.178C470.341 218.053 469.938 219.073 469.022 219.474C468.142 219.875 467.116 219.474 466.713 218.563L464.807 214.226C464.404 213.352 464.807 212.331 465.724 211.93C466.603 211.566 467.629 211.967 468.032 212.841Z" fill="#EEEEEE"/>
<path d="M452.055 187.733L455.023 191.45C455.61 192.215 455.5 193.309 454.73 193.892C453.961 194.475 452.861 194.365 452.275 193.6L449.307 189.883C448.72 189.118 448.83 188.024 449.6 187.441C450.333 186.858 451.432 186.968 452.055 187.733Z" fill="#EEEEEE"/>
<path d="M428.784 169.183L432.559 172.062C433.328 172.645 433.475 173.739 432.888 174.504C432.302 175.269 431.203 175.415 430.433 174.832L426.659 171.953C425.889 171.37 425.743 170.277 426.329 169.511C426.915 168.746 428.015 168.6 428.784 169.183Z" fill="#EEEEEE"/>
<path d="M401.96 164.92H406.724C407.677 164.92 408.483 165.685 408.483 166.669C408.483 167.617 407.714 168.418 406.724 168.418H401.96C401.007 168.418 400.201 167.653 400.201 166.669C400.201 165.722 400.971 164.92 401.96 164.92Z" fill="#EEEEEE"/>
<path d="M376.161 172.828L379.899 169.876C380.669 169.293 381.768 169.402 382.355 170.167C382.941 170.933 382.831 172.026 382.061 172.609L378.36 175.561C377.591 176.144 376.491 176.035 375.905 175.269C375.282 174.541 375.392 173.411 376.161 172.828Z" fill="#EEEEEE"/>
<path d="M367.696 194.402L367 189.737C366.853 188.79 367.513 187.915 368.466 187.769C369.419 187.624 370.298 188.28 370.445 189.227L371.141 193.892C371.287 194.839 370.628 195.714 369.675 195.86C368.759 196.005 367.843 195.349 367.696 194.402Z" fill="#EEEEEE"/>
<path d="M385.616 212.113L381.182 210.4C380.266 210.072 379.826 209.052 380.156 208.141C380.486 207.23 381.512 206.792 382.428 207.12L386.862 208.833C387.778 209.161 388.218 210.181 387.888 211.092C387.522 212.004 386.532 212.477 385.616 212.113Z" fill="#EEEEEE"/>
<path d="M411.268 210.51L406.761 212.077C405.845 212.405 404.855 211.931 404.525 211.02C404.196 210.109 404.672 209.125 405.588 208.797L410.096 207.23C411.012 206.902 412.001 207.376 412.331 208.287C412.661 209.198 412.184 210.182 411.268 210.51Z" fill="#EEEEEE"/>
<path d="M430.324 189.956L428.345 194.256C427.942 195.131 426.916 195.531 426.036 195.131C425.157 194.73 424.754 193.709 425.157 192.835L427.136 188.534C427.539 187.66 428.565 187.259 429.444 187.66C430.324 188.024 430.727 189.081 430.324 189.956Z" fill="#EEEEEE"/>
<path d="M436.957 167.762L437.47 172.463C437.58 173.41 436.883 174.285 435.931 174.394C434.978 174.504 434.098 173.811 433.988 172.864L433.475 168.163C433.365 167.215 434.062 166.34 435.014 166.231C435.967 166.122 436.847 166.814 436.957 167.762Z" fill="#EEEEEE"/>
<path d="M420.906 136.932L423.508 140.904C424.021 141.706 423.801 142.799 422.995 143.309C422.188 143.819 421.089 143.601 420.576 142.799L417.974 138.827C417.461 138.025 417.681 136.932 418.487 136.421C419.293 135.875 420.393 136.13 420.906 136.932Z" fill="#EEEEEE"/>
<path d="M405.221 110.073L407.823 114.045C408.336 114.847 408.116 115.94 407.31 116.45C406.504 116.96 405.405 116.742 404.892 115.94L402.29 111.968C401.777 111.166 401.996 110.073 402.803 109.563C403.609 109.052 404.708 109.271 405.221 110.073Z" fill="#EEEEEE"/>
<path d="M385.543 85.8017L388.144 89.774C388.658 90.5758 388.438 91.6691 387.631 92.1793C386.825 92.6895 385.726 92.4708 385.213 91.6691L382.611 87.6968C382.098 86.895 382.318 85.8017 383.124 85.2915C383.93 84.7449 385.03 85 385.543 85.8017Z" fill="#EEEEEE"/>
</g>
<defs>
<clipPath id="clip0">
<rect width="111" height="284" fill="white" transform="translate(367 85)"/>
</clipPath>
</defs>
</svg>